<svg width="118" height="28" viewBox="0 0 118 28" fill="none" xmlns="http://www.w3.org/2000/svg">
<path d="M38.3467 7.20312H40.5791L43.8662 16.5986L47.1533 7.20312H49.3857L44.7627 20H42.9697L38.3467 7.20312ZM37.1426 7.20312H39.3662L39.7705 16.3613V20H37.1426V7.20312ZM48.3662 7.20312H50.5986V20H47.9619V16.3613L48.3662 7.20312ZM57.1289 20.1758C56.3906 20.1758 55.7285 20.0586 55.1426 19.8242C54.5566 19.584 54.0586 19.2529 53.6484 18.8311C53.2441 18.4092 52.9336 17.9199 52.7168 17.3633C52.5 16.8008 52.3916 16.2031 52.3916 15.5703V15.2188C52.3916 14.498 52.4941 13.8389 52.6992 13.2412C52.9043 12.6436 53.1973 12.125 53.5781 11.6855C53.9648 11.2461 54.4336 10.9092 54.9844 10.6748C55.5352 10.4346 56.1562 10.3145 56.8477 10.3145C57.5215 10.3145 58.1191 10.4258 58.6406 10.6484C59.1621 10.8711 59.5986 11.1875 59.9502 11.5977C60.3076 12.0078 60.5771 12.5 60.7588 13.0742C60.9404 13.6426 61.0312 14.2754 61.0312 14.9727V16.0273H53.4727V14.3398H58.5439V14.1465C58.5439 13.7949 58.4795 13.4814 58.3506 13.2061C58.2275 12.9248 58.04 12.7021 57.7881 12.5381C57.5361 12.374 57.2139 12.292 56.8213 12.292C56.4873 12.292 56.2002 12.3652 55.96 12.5117C55.7197 12.6582 55.5234 12.8633 55.3711 13.127C55.2246 13.3906 55.1133 13.7012 55.0371 14.0586C54.9668 14.4102 54.9316 14.7969 54.9316 15.2188V15.5703C54.9316 15.9512 54.9844 16.3027 55.0898 16.625C55.2012 16.9473 55.3564 17.2256 55.5557 17.46C55.7607 17.6943 56.0068 17.876 56.2939 18.0049C56.5869 18.1338 56.918 18.1982 57.2871 18.1982C57.7441 18.1982 58.1689 18.1104 58.5615 17.9346C58.96 17.7529 59.3027 17.4805 59.5898 17.1172L60.8203 18.4531C60.6211 18.7402 60.3486 19.0156 60.0029 19.2793C59.6631 19.543 59.2529 19.7598 58.7725 19.9297C58.292 20.0938 57.7441 20.1758 57.1289 20.1758ZM66.8496 20.1758C66.1113 20.1758 65.4492 20.0586 64.8633 19.8242C64.2773 19.584 63.7793 19.2529 63.3691 18.8311C62.9648 18.4092 62.6543 17.9199 62.4375 17.3633C62.2207 16.8008 62.1123 16.2031 62.1123 15.5703V15.2188C62.1123 14.498 62.2148 13.8389 62.4199 13.2412C62.625 12.6436 62.918 12.125 63.2988 11.6855C63.6855 11.2461 64.1543 10.9092 64.7051 10.6748C65.2559 10.4346 65.877 10.3145 66.5684 10.3145C67.2422 10.3145 67.8398 10.4258 68.3613 10.6484C68.8828 10.8711 69.3193 11.1875 69.6709 11.5977C70.0283 12.0078 70.2979 12.5 70.4795 13.0742C70.6611 13.6426 70.752 14.2754 70.752 14.9727V16.0273H63.1934V14.3398H68.2646V14.1465C68.2646 13.7949 68.2002 13.4814 68.0713 13.2061C67.9482 12.9248 67.7607 12.7021 67.5088 12.5381C67.2568 12.374 66.9346 12.292 66.542 12.292C66.208 12.292 65.9209 12.3652 65.6807 12.5117C65.4404 12.6582 65.2441 12.8633 65.0918 13.127C64.9453 13.3906 64.834 13.7012 64.7578 14.0586C64.6875 14.4102 64.6523 14.7969 64.6523 15.2188V15.5703C64.6523 15.9512 64.7051 16.3027 64.8105 16.625C64.9219 16.9473 65.0771 17.2256 65.2764 17.46C65.4814 17.6943 65.7275 17.876 66.0146 18.0049C66.3076 18.1338 66.6387 18.1982 67.0078 18.1982C67.4648 18.1982 67.8896 18.1104 68.2822 17.9346C68.6807 17.7529 69.0234 17.4805 69.3105 17.1172L70.541 18.4531C70.3418 18.7402 70.0693 19.0156 69.7236 19.2793C69.3838 19.543 68.9736 19.7598 68.4932 19.9297C68.0127 20.0938 67.4648 20.1758 66.8496 20.1758ZM76.8516 10.4902V12.2832H71.3145V10.4902H76.8516ZM72.6855 8.14355H75.2168V17.1348C75.2168 17.4102 75.252 17.6211 75.3223 17.7676C75.3984 17.9141 75.5098 18.0166 75.6562 18.0752C75.8027 18.1279 75.9873 18.1543 76.21 18.1543C76.3682 18.1543 76.5088 18.1484 76.6318 18.1367C76.7607 18.1191 76.8691 18.1016 76.957 18.084L76.9658 19.9473C76.749 20.0176 76.5146 20.0732 76.2627 20.1143C76.0107 20.1553 75.7324 20.1758 75.4277 20.1758C74.8711 20.1758 74.3848 20.085 73.9688 19.9033C73.5586 19.7158 73.2422 19.417 73.0195 19.0068C72.7969 18.5967 72.6855 18.0576 72.6855 17.3896V8.14355ZM80.8242 12.459V20H78.2842V10.4902H80.666L80.8242 12.459ZM80.4727 14.9111H79.7695C79.7695 14.249 79.8486 13.6396 80.0068 13.083C80.1709 12.5205 80.4082 12.0342 80.7188 11.624C81.0352 11.208 81.4248 10.8857 81.8877 10.6572C82.3506 10.4287 82.8867 10.3145 83.4961 10.3145C83.918 10.3145 84.3047 10.3789 84.6562 10.5078C85.0078 10.6309 85.3096 10.8271 85.5615 11.0967C85.8193 11.3604 86.0186 11.7061 86.1592 12.1338C86.2998 12.5557 86.3701 13.0625 86.3701 13.6543V20H83.8389V13.9355C83.8389 13.502 83.7803 13.168 83.6631 12.9336C83.5459 12.6992 83.3789 12.5352 83.1621 12.4414C82.9512 12.3477 82.6963 12.3008 82.3975 12.3008C82.0693 12.3008 81.7822 12.3682 81.5361 12.5029C81.2959 12.6377 81.0967 12.8252 80.9385 13.0654C80.7803 13.2998 80.6631 13.5752 80.5869 13.8916C80.5107 14.208 80.4727 14.5479 80.4727 14.9111ZM86.1328 14.6211L85.2275 14.7354C85.2275 14.1143 85.3037 13.5371 85.4561 13.0039C85.6143 12.4707 85.8457 12.002 86.1504 11.5977C86.4609 11.1934 86.8447 10.8799 87.3018 10.6572C87.7588 10.4287 88.2861 10.3145 88.8838 10.3145C89.3408 10.3145 89.7568 10.3818 90.1318 10.5166C90.5068 10.6455 90.8262 10.8535 91.0898 11.1406C91.3594 11.4219 91.5645 11.791 91.7051 12.248C91.8516 12.7051 91.9248 13.2646 91.9248 13.9268V20H89.3848V13.9268C89.3848 13.4873 89.3262 13.1533 89.209 12.9248C89.0977 12.6904 88.9336 12.5293 88.7168 12.4414C88.5059 12.3477 88.2539 12.3008 87.9609 12.3008C87.6562 12.3008 87.3896 12.3623 87.1611 12.4854C86.9326 12.6025 86.7422 12.7666 86.5898 12.9775C86.4375 13.1885 86.3232 13.4346 86.2471 13.7158C86.1709 13.9912 86.1328 14.293 86.1328 14.6211ZM99.0176 17.8555V13.6191C99.0176 13.3145 98.9678 13.0537 98.8682 12.8369C98.7686 12.6143 98.6133 12.4414 98.4023 12.3184C98.1973 12.1953 97.9307 12.1338 97.6025 12.1338C97.3213 12.1338 97.0781 12.1836 96.873 12.2832C96.668 12.377 96.5098 12.5146 96.3984 12.6963C96.2871 12.8721 96.2314 13.0801 96.2314 13.3203H93.7002C93.7002 12.916 93.7939 12.5322 93.9814 12.1689C94.1689 11.8057 94.4414 11.4863 94.7988 11.2109C95.1562 10.9297 95.5811 10.71 96.0732 10.5518C96.5713 10.3936 97.1279 10.3145 97.7432 10.3145C98.4814 10.3145 99.1377 10.4375 99.7119 10.6836C100.286 10.9297 100.737 11.2988 101.065 11.791C101.399 12.2832 101.566 12.8984 101.566 13.6367V17.7061C101.566 18.2275 101.599 18.6553 101.663 18.9893C101.728 19.3174 101.821 19.6045 101.944 19.8506V20H99.3867C99.2637 19.7422 99.1699 19.4199 99.1055 19.0332C99.0469 18.6406 99.0176 18.248 99.0176 17.8555ZM99.3516 14.208L99.3691 15.6406H97.9541C97.6201 15.6406 97.3301 15.6787 97.084 15.7549C96.8379 15.8311 96.6357 15.9395 96.4775 16.0801C96.3193 16.2148 96.2021 16.373 96.126 16.5547C96.0557 16.7363 96.0205 16.9355 96.0205 17.1523C96.0205 17.3691 96.0703 17.5654 96.1699 17.7412C96.2695 17.9111 96.4131 18.0459 96.6006 18.1455C96.7881 18.2393 97.0078 18.2861 97.2598 18.2861C97.6406 18.2861 97.9717 18.21 98.2529 18.0576C98.5342 17.9053 98.751 17.7178 98.9033 17.4951C99.0615 17.2725 99.1436 17.0615 99.1494 16.8623L99.8174 17.9346C99.7236 18.1748 99.5947 18.4238 99.4307 18.6816C99.2725 18.9395 99.0703 19.1826 98.8242 19.4111C98.5781 19.6338 98.2822 19.8184 97.9365 19.9648C97.5908 20.1055 97.1807 20.1758 96.7061 20.1758C96.1025 20.1758 95.5547 20.0557 95.0625 19.8154C94.5762 19.5693 94.1895 19.2324 93.9023 18.8047C93.6211 18.3711 93.4805 17.8789 93.4805 17.3281C93.4805 16.8301 93.5742 16.3877 93.7617 16.001C93.9492 15.6143 94.2246 15.2891 94.5879 15.0254C94.957 14.7559 95.417 14.5537 95.9678 14.4189C96.5186 14.2783 97.1572 14.208 97.8838 14.208H99.3516ZM105.557 10.4902L107.13 13.3818L108.747 10.4902H111.445L108.756 15.1396L111.568 20H108.861L107.147 16.9414L105.434 20H102.727L105.539 15.1396L102.85 10.4902H105.557Z" fill="#377DFF"/>
<path d="M10.4 1H15.6C18.3583 1 21.0035 2.12381 22.9539 4.12419C24.9043 6.12458 26 8.83769 26 11.6667C26 14.4956 24.9043 17.2088 22.9539 19.2091C21.0035 21.2095 18.3583 22.3333 15.6 22.3333V27C9.1 24.3333 0 20.3333 0 11.6667C0 8.83769 1.09571 6.12458 3.04609 4.12419C4.99647 2.12381 7.64175 1 10.4 1Z" fill="#377DFF"/>
<path d="M19 10C19 11.5913 18.3679 13.1174 17.2426 14.2426C16.1174 15.3679 14.5913 16 13 16C11.4087 16 9.88258 15.3679 8.75736 14.2426C7.63214 13.1174 7 11.5913 7 10L9.4 10C9.4 10.9548 9.77928 11.8705 10.4544 12.5456C11.1295 13.2207 12.0452 13.6 13 13.6C13.9548 13.6 14.8705 13.2207 15.5456 12.5456C16.2207 11.8705 16.6 10.9548 16.6 10H19Z" fill="white"/>
</svg>
